# xmcd
#
# Track frame offsets: 
#        150
#        30737
#        63674
#        94811
#        123669
#        148977
#        177719
#        200781
#        228689
#        246969
#        266901
#        291729
#        309261
#
# Disc length: 4491 seconds
#
# Revision: 2
# Processed by: cddbd v1.5.2PL0 Copyright (c) Steve Scherf et al.
# Submitted via: ExactAudioCopy v1.3
#
DISCID=e011890d
DTITLE=Various Artist - Italo 80s Disco Hits
DYEAR=2005
DGENRE=Italo Disco
TTITLE0=Rene' - Don't Hurt Me (12'' Vocal)
TTITLE1=Meet Point - Play The Night (12'' D-Version)
TTITLE2=Plastic Mode - Baja Imperial (Maxi Version)
TTITLE3=Robert Camaro - Love Games (12'' Version)
TTITLE4=Denise and Baby's Gang - Disco Maniac (12'' Version)
TTITLE5=Radiorama - Vampires (Maxi Version)
TTITLE6=Hot and Cold - Don't Talk About It (12'' U.S.A. Version)
TTITLE7=Patrick Colby - Mandrill (12'' Instrumental)
TTITLE8=P. Lion - Dream (7'' Version)
TTITLE9=Patty Ryan - (You're) My Love, (You're) My Life (7'' Version)
TTITLE10=50 and 50 Brothers - Red Man (12'' After Rain Version)
TTITLE11=Grant Miller - Colder Than Ice (7'' Version)
TTITLE12=Koto - Time (12'' Dance Mix)
EXTD=
EXTT0=
EXTT1=
EXTT2=
EXTT3=
EXTT4=
EXTT5=
EXTT6=
EXTT7=
EXTT8=
EXTT9=
EXTT10=
EXTT11=
EXTT12=
PLAYORDER=
